<svg width="512" height="512" viewBox="0 0 512 512" fill="none" xmlns="http://www.w3.org/2000/svg">
  <!-- 背景 -->
  <rect width="512" height="512" rx="64" fill="#2563eb"/>
  
  <!-- 遠景の山々（薄い白色） -->
  <path d="M0 350L80 280L160 320L240 260L320 300L400 240L512 280V512H0Z" fill="white" opacity="0.3"/>
  
  <!-- 中景の山々（中程度の白色） -->
  <path d="M0 380L100 300L200 340L300 280L400 320L512 300V512H0Z" fill="white" opacity="0.6"/>
  
  <!-- 前景の山々（濃い白色） -->
  <path d="M0 420L120 340L200 380L280 320L360 360L450 320L512 340V512H0Z" fill="white" opacity="0.9"/>
  
  <!-- メインの白峰山 -->
  <path d="M180 200L256 120L332 200L256 260Z" fill="white"/>
  <path d="M180 200L256 140L332 200L280 230L256 210L232 230Z" fill="white" opacity="0.8"/>
  
  <!-- 「白」の文字 -->
  <g transform="translate(226, 180)">
    <!-- 白の文字（縦棒） -->
    <rect x="28" y="0" width="4" height="40" fill="#2563eb"/>
    <!-- 白の文字（横棒1） -->
    <rect x="16" y="12" width="28" height="3" fill="#2563eb"/>
    <!-- 白の文字（横棒2） -->
    <rect x="20" y="24" width="20" height="3" fill="#2563eb"/>
    <!-- 白の文字（下の横棒） -->
    <rect x="12" y="36" width="36" height="4" fill="#2563eb"/>
  </g>
  
  <!-- 雪の結晶エフェクト -->
  <g fill="white" opacity="0.8">
    <!-- 雪の結晶1 -->
    <circle cx="150" cy="180" r="3"/>
    <rect x="149" y="170" width="2" height="20" fill="white"/>
    <rect x="140" y="179" width="20" height="2" fill="white"/>
    <line x1="143" y1="172" x2="157" y2="186" stroke="white" stroke-width="1"/>
    <line x1="157" y1="172" x2="143" y2="186" stroke="white" stroke-width="1"/>
    
    <!-- 雪の結晶2 -->
    <circle cx="380" cy="200" r="2"/>
    <rect x="379" y="193" width="2" height="14" fill="white"/>
    <rect x="372" y="199" width="16" height="2" fill="white"/>
    
    <!-- 雪の結晶3 -->
    <circle cx="100" cy="250" r="2"/>
    <rect x="99" y="243" width="2" height="14" fill="white"/>
    <rect x="92" y="249" width="16" height="2" fill="white"/>
    
    <!-- 小さな雪粒 -->
    <circle cx="200" cy="160" r="1.5"/>
    <circle cx="320" cy="180" r="1"/>
    <circle cx="450" cy="220" r="1.5"/>
    <circle cx="80" cy="300" r="1"/>
    <circle cx="400" cy="280" r="1"/>
  </g>
  
  <!-- 村の家々 -->
  <g fill="white" opacity="0.7">
    <!-- 家1 -->
    <rect x="120" y="360" width="24" height="20" fill="white"/>
    <path d="M108 360L132 340L156 360Z" fill="white"/>
    <rect x="126" y="368" width="4" height="8" fill="#2563eb"/>
    <rect x="136" y="364" width="6" height="4" fill="#2563eb"/>
    
    <!-- 家2 -->
    <rect x="400" y="370" width="20" height="16" fill="white"/>
    <path d="M390 370L410 355L430 370Z" fill="white"/>
    <rect x="404" y="376" width="3" height="6" fill="#2563eb"/>
    <rect x="412" y="374" width="5" height="3" fill="#2563eb"/>
    
    <!-- 家3（小さな家） -->
    <rect x="300" y="380" width="16" height="12" fill="white"/>
    <path d="M292 380L308 370L324 380Z" fill="white"/>
    <rect x="304" y="384" width="2" height="5" fill="#2563eb"/>
  </g>
  
  <!-- 川の表現 -->
  <path d="M0 440Q128 420 256 440T512 440V512H0Z" fill="white" opacity="0.4"/>
  
  <!-- 雲 -->
  <g fill="white" opacity="0.6">
    <ellipse cx="400" cy="140" rx="30" ry="15"/>
    <ellipse cx="420" cy="135" rx="25" ry="12"/>
    <ellipse cx="385" cy="145" rx="20" ry="10"/>
    
    <ellipse cx="150" cy="120" rx="25" ry="12"/>
    <ellipse cx="165" cy="115" rx="20" ry="10"/>
  </g>
</svg>
