<svg width="180" height="180" viewBox="0 0 180 180" fill="none" xmlns="http://www.w3.org/2000/svg">
  <!-- 背景 -->
  <rect width="180" height="180" rx="40" fill="#2563eb"/>
  
  <!-- 遠景の山々 -->
  <path d="M0 130L30 110L60 120L90 105L120 115L150 100L180 110V180H0Z" fill="white" opacity="0.4"/>
  
  <!-- 中景の山々 -->
  <path d="M0 140L35 120L70 130L105 115L140 125L180 120V180H0Z" fill="white" opacity="0.7"/>
  
  <!-- 前景の山々 -->
  <path d="M0 155L40 135L75 145L110 130L145 140L180 135V180H0Z" fill="white" opacity="0.9"/>
  
  <!-- メインの白峰山 -->
  <path d="M60 80L90 50L120 80L90 100Z" fill="white"/>
  <path d="M60 80L90 60L120 80L105 90L90 85L75 90Z" fill="white" opacity="0.8"/>
  
  <!-- 「白」の文字 -->
  <g transform="translate(80, 70)">
    <!-- 白の文字（縦棒） -->
    <rect x="9" y="0" width="2" height="20" fill="#2563eb"/>
    <!-- 白の文字（横棒1） -->
    <rect x="5" y="6" width="14" height="1.5" fill="#2563eb"/>
    <!-- 白の文字（横棒2） -->
    <rect x="6.5" y="12" width="11" height="1.5" fill="#2563eb"/>
    <!-- 白の文字（下の横棒） -->
    <rect x="3" y="18" width="18" height="2" fill="#2563eb"/>
  </g>
  
  <!-- 雪の結晶エフェクト -->
  <g fill="white" opacity="0.8">
    <!-- 雪の結晶1 -->
    <circle cx="50" cy="70" r="1.5"/>
    <rect x="49.5" y="65" width="1" height="10" fill="white"/>
    <rect x="45" y="69.5" width="10" height="1" fill="white"/>
    
    <!-- 雪の結晶2 -->
    <circle cx="130" cy="75" r="1"/>
    <rect x="129.5" y="71" width="1" height="8" fill="white"/>
    <rect x="126" y="74.5" width="8" height="1" fill="white"/>
    
    <!-- 小さな雪粒 -->
    <circle cx="70" cy="60" r="0.8"/>
    <circle cx="110" cy="65" r="0.6"/>
    <circle cx="150" cy="85" r="0.8"/>
    <circle cx="25" cy="100" r="0.6"/>
  </g>
  
  <!-- 村の家々 -->
  <g fill="white" opacity="0.7">
    <!-- 家1 -->
    <rect x="40" y="125" width="12" height="10" fill="white"/>
    <path d="M36 125L46 115L56 125Z" fill="white"/>
    <rect x="43" y="130" width="2" height="4" fill="#2563eb"/>
    <rect x="48" y="128" width="3" height="2" fill="#2563eb"/>
    
    <!-- 家2 -->
    <rect x="140" y="130" width="10" height="8" fill="white"/>
    <path d="M135 130L145 125L155 130Z" fill="white"/>
    <rect x="142" y="133" width="1.5" height="3" fill="#2563eb"/>
    <rect x="147" y="132" width="2.5" height="1.5" fill="#2563eb"/>
  </g>
  
  <!-- 川の表現 -->
  <path d="M0 150Q45 145 90 150T180 150V180H0Z" fill="white" opacity="0.4"/>
  
  <!-- 雲 -->
  <g fill="white" opacity="0.6">
    <ellipse cx="130" cy="45" rx="12" ry="6"/>
    <ellipse cx="140" cy="42" rx="10" ry="5"/>
    <ellipse cx="123" cy="48" rx="8" ry="4"/>
  </g>
</svg>
